<svg id="Capa_1" enable-background="new 0 0 512 512" height="512" viewBox="0 0 512 512" width="512" xmlns="http://www.w3.org/2000/svg"><g><g><g><ellipse cx="106.795" cy="307.049" fill="#e2c4ff" rx="22.886" ry="22.917"/></g><g><ellipse cx="181.677" cy="307.049" fill="#e2c4ff" rx="22.886" ry="22.917"/></g><g><ellipse cx="256.558" cy="307.049" fill="#e2c4ff" rx="22.886" ry="22.917"/></g><g><path d="m479.144 31.037h-255.276c-18.146 0-32.856 14.731-32.856 32.902v63.454c90.473 4.855 162.342 79.852 162.342 171.659 0 .105-.001.21-.001.315h46.332l41.947 29.425 11.064-29.425h26.449c18.146 0 32.856-14.731 32.856-32.902v-202.525c-.001-18.172-14.711-32.903-32.857-32.903z" fill="#e2c4ff"/></g></g><g><path d="m181.677 480.963c-40.109 0-78.142-12.838-109.986-37.125l-4.523-3.393-43.224 6.415c-3.328.493-6.688-.721-8.931-3.235-2.242-2.514-3.068-5.987-2.197-9.241l11.756-43.936c-16.09-27.68-24.572-59.182-24.572-91.395 0-100.305 81.5-181.91 181.677-181.91s181.677 81.604 181.677 181.91-81.5 181.91-181.677 181.91zm-111.849-61.023c2.15 0 4.259.694 6.001 2l7.926 5.946c28.395 21.655 62.233 33.076 97.922 33.076 89.148 0 161.677-72.632 161.677-161.91s-72.528-161.91-161.677-161.91-161.677 72.634-161.677 161.911c0 29.975 8.246 59.251 23.847 84.665 1.436 2.339 1.847 5.165 1.138 7.816l-8.912 33.307 32.288-4.792c.488-.073.979-.109 1.467-.109z" fill="#020288"/></g></g></svg>